HIERARCHY
ROOT hip
{
	OFFSET 0.000000 0.000000 0.000000 
	CHANNELS 6 Xposition Yposition Zposition Xrotation Zrotation Yrotation
	JOINT abdomen
	{
		OFFSET 0.000000 3.402643 0.000000 
		CHANNELS 3 Xrotation Zrotation Yrotation
		JOINT chest
		{
			OFFSET 0.000000 8.438565 -0.680529 
			CHANNELS 3 Xrotation Zrotation Yrotation
			JOINT neck
			{
				OFFSET 0.000000 10.207942 -0.272212 
				CHANNELS 3 Xrotation Zrotation Yrotation
				JOINT head
				{
					OFFSET 0.000000 3.130431 0.000000 
					CHANNELS 3 Xrotation Zrotation Yrotation
					End Site
					{
						OFFSET 0.000000 3.130435 0.000000 
					}
				}
			}
			JOINT lCollar
			{
				OFFSET 3.470700 6.669187 -0.816635 
				CHANNELS 3 Yrotation Zrotation Xrotation
				JOINT lShldr
				{
					OFFSET 3.198488 0.000000 0.000000 
					CHANNELS 3 Zrotation Yrotation Xrotation
					JOINT lForeArm
					{
						OFFSET 10.139888 0.000000 0.000000 
						CHANNELS 3 Yrotation Zrotation Xrotation
						JOINT lHand
						{
							OFFSET 8.370511 0.000000 0.000000 
							CHANNELS 3 Zrotation Yrotation Xrotation
							End Site
							{
								OFFSET 4.083176 0.000000 0.000000 
							}
						}
					}
				}
			}
			JOINT rCollar
			{
				OFFSET -3.470700 6.669187 -0.816635 
				CHANNELS 3 Yrotation Zrotation Xrotation
				JOINT rShldr
				{
					OFFSET -3.198488 0.000000 0.000000 
					CHANNELS 3 Zrotation Yrotation Xrotation
					JOINT rForeArm
					{
						OFFSET -10.139888 0.000000 0.000000 
						CHANNELS 3 Yrotation Zrotation Xrotation
						JOINT rHand
						{
							OFFSET -8.370511 0.000000 0.000000 
							CHANNELS 3 Zrotation Yrotation Xrotation
							End Site
							{
								OFFSET -4.083176 0.000000 0.000000 
							}
						}
					}
				}
			}
		}
	}
	JOINT lThigh
	{
		OFFSET 5.308129 -1.633274 1.361059 
		CHANNELS 3 Xrotation Zrotation Yrotation
		JOINT lShin
		{
			OFFSET -2.041588 -20.007561 0.000000 
			CHANNELS 3 Xrotation Zrotation Yrotation
			JOINT lFoot
			{
				OFFSET 0.000000 -19.190928 -1.224953 
				CHANNELS 3 Xrotation Yrotation Zrotation
				End Site
				{
					OFFSET 0.000000 -2.449906 4.627600 
				}
			}
		}
	}
	JOINT rThigh
	{
		OFFSET -5.308129 -1.633274 1.361059 
		CHANNELS 3 Xrotation Zrotation Yrotation
		JOINT rShin
		{
			OFFSET 2.041588 -20.007561 0.000000 
			CHANNELS 3 Xrotation Zrotation Yrotation
			JOINT rFoot
			{
				OFFSET 0.000000 -19.190928 -1.224953 
				CHANNELS 3 Xrotation Yrotation Zrotation
				End Site
				{
					OFFSET 0.000000 -2.449906 4.627600 
				}
			}
		}
	}
}
MOTION
Frames: 11
Frame Time: 0.016667
16.010361 34.768616 60.336941 26.801052 0.295596 -30.137131 42.470089 -7.553868 -10.285613 -16.757107 13.521171 -5.160886 -27.083008 18.328169 -10.219987 31.447393 11.617814 -2.750183 13.524692 -0.396217 -0.104440 -54.953682 -57.474327 20.667192 -93.571083 0.997225 11.517864 15.689386 16.252058 4.457182 -23.555225 -0.562522 -0.053709 -8.943591 75.883156 -55.363533 115.528030 -5.030249 78.075081 -48.409786 -21.042694 21.827255 -63.269470 5.791290 -12.947153 65.942337 0.488092 -4.048059 -4.636364 16.254808 -10.271680 -38.650951 -26.356506 -2.106426 64.903801 -1.083718 3.105830 44.059998 -4.210639 16.240635 
16.070913 34.828831 60.519173 26.609715 0.269696 -30.342163 42.637249 -7.467850 -10.264969 -16.577333 13.608912 -5.153674 -27.158121 18.160076 -10.115263 31.533825 11.618649 -2.660163 13.436799 -0.479408 -0.085482 -55.209366 -57.366882 20.666166 -93.571083 0.997225 11.517864 15.594215 16.263777 4.450428 -23.555225 -0.562522 -0.053709 -9.308977 76.201515 -55.788898 115.450623 -5.009254 78.117195 -48.559433 -20.757338 21.574286 -62.405151 5.537636 -13.004968 65.570450 0.428474 -4.106164 -5.057394 17.191326 -10.105680 -41.556717 -26.021799 -1.681941 67.874397 -1.415846 3.327677 44.195168 -4.375745 16.472004 
16.131407 34.889011 60.701393 26.423527 0.235488 -30.547150 42.806225 -7.391429 -10.243073 -16.397535 13.696656 -5.146487 -27.243641 17.991838 -10.013680 31.628010 11.619370 -2.581676 13.348966 -0.562658 -0.066509 -55.448418 -57.263775 20.648161 -93.571083 0.997225 11.517864 15.511171 16.262745 4.455644 -23.555225 -0.562522 -0.053709 -9.705338 76.521072 -56.222454 115.382935 -4.988447 78.158936 -48.720314 -20.474510 21.338709 -61.561737 5.274509 -13.070385 65.210541 0.350615 -4.117691 -5.490133 18.083111 -9.947219 -44.449871 -25.671953 -1.309593 70.842766 -1.786236 3.550138 44.333790 -4.572078 16.721670 
16.177855 34.944206 60.885269 26.159782 0.167781 -30.791155 42.983280 -7.305387 -10.221200 -16.317764 13.784193 -5.146479 -27.234665 17.996603 -9.921161 31.714214 11.443768 -2.579734 13.261179 -0.655732 -0.047523 -55.667980 -57.012337 20.704975 -93.566437 0.990797 11.426745 15.345828 16.452671 4.465290 -23.555225 -0.562522 -0.053709 -9.311668 76.882561 -55.872871 115.286255 -4.957333 78.309242 -48.752869 -20.207251 21.110418 -60.848816 5.089143 -12.917123 64.936020 0.604335 -4.210524 -5.738742 18.662472 -9.765387 -47.358116 -25.231766 -0.931112 73.664093 -1.776996 3.380437 44.347919 -4.763289 16.901669 
16.224224 34.999359 61.069168 25.901648 0.092045 -31.035191 43.159164 -7.219553 -10.189670 -16.225821 13.871939 -5.139322 -27.228851 18.000801 -9.840931 31.799965 11.277919 -2.577826 13.173462 -0.739099 -0.028524 -55.873627 -56.764698 20.733120 -93.562439 0.983979 11.345431 15.186976 16.635168 4.465172 -23.555225 -0.562522 -0.053709 -8.940476 77.242073 -55.542885 115.170311 -4.916098 78.450554 -48.766682 -19.936451 20.857231 -60.162724 4.922111 -12.756862 64.680603 0.839348 -4.317194 -5.994226 19.245796 -9.566336 -50.261024 -24.783916 -0.595719 76.483429 -1.806502 3.224651 44.360020 -4.944176 17.061749 
16.247244 35.044514 61.266479 25.721155 0.066769 -31.279322 43.336361 -7.133483 -10.167850 -16.050037 13.871939 -5.139322 -27.231367 18.015108 -9.748405 31.808088 11.093390 -2.476369 13.076172 -0.820313 0.000000 -56.046085 -56.426105 20.793186 -93.566437 1.000543 11.427352 15.113349 16.735512 4.467189 -23.565756 -0.527374 -0.134263 -8.554310 77.578293 -55.157932 115.141319 -4.905791 78.559128 -48.736675 -19.519196 20.404573 -59.529327 4.824256 -12.591835 64.518753 0.742093 -4.282532 -6.389653 19.516439 -9.406697 -52.928413 -24.228008 -0.761538 78.939095 -1.962636 3.254961 44.043720 -5.261676 17.232000 
16.270189 35.089630 61.463795 25.531111 0.041622 -31.523443 43.503860 -7.047403 -10.146057 -15.862082 13.872149 -5.129843 -27.232115 18.019753 -9.655879 31.815130 10.918558 -2.376798 12.988582 -0.903813 0.019183 -56.190197 -56.098576 20.817675 -93.571083 0.997225 11.517864 15.029517 16.836653 4.468940 -23.566473 -0.492235 -0.214821 -8.199447 77.917435 -54.823181 115.112701 -4.875957 78.657928 -48.710461 -19.108892 19.944036 -58.895210 4.726624 -12.418451 64.346664 0.653681 -4.251031 -6.817851 19.841047 -9.216673 -55.589355 -23.678993 -0.962215 81.394066 -2.148455 3.272176 43.706944 -5.573390 17.398649 
16.272070 35.124752 61.663578 25.330526 -0.107923 -31.777411 43.585155 -6.875204 -10.103727 -15.774190 13.872148 -5.129844 -27.315987 18.106394 -9.661931 31.898829 10.742852 -2.384564 12.908938 -0.925657 -0.076140 -56.464294 -55.772373 20.951836 -93.655426 0.969046 11.522065 14.924435 16.865496 4.395076 -23.478065 -0.416347 -0.188096 -7.747713 78.268852 -54.410156 115.043365 -4.943040 78.728981 -48.579716 -18.515833 19.428764 -58.273472 4.727304 -12.255195 64.164223 0.692063 -4.133235 -6.942213 19.948278 -9.139912 -58.191860 -23.261124 -1.515517 83.497711 -2.323733 3.286041 43.566326 -5.963249 17.667349 
16.273869 35.159855 61.863422 25.121458 -0.256673 -32.021870 43.667271 -6.712775 -10.050611 -15.686301 13.872149 -5.129843 -27.411366 18.202665 -9.664967 31.984390 10.567223 -2.382778 12.819648 -0.945043 -0.161855 -56.733437 -55.445602 21.085108 -93.737007 0.960960 11.517406 14.809107 16.894878 4.318290 -23.389648 -0.334487 -0.152371 -7.241031 78.627548 -53.938114 114.983574 -5.020071 78.809410 -48.453518 -17.924408 18.926218 -57.645622 4.717837 -12.124865 63.992241 0.731472 -3.996146 -7.094469 20.076584 -9.056584 -60.776588 -22.859426 -2.070161 85.602516 -2.480298 3.288803 43.405163 -6.361371 17.933739 
16.253138 35.189960 62.083675 24.865725 -0.330943 -32.090481 43.747219 -6.626631 -10.028943 -15.597510 13.862420 -5.129844 -27.416414 18.375425 -9.686463 31.995539 10.303780 -2.381042 12.731851 -1.028380 -0.142859 -57.054501 -55.195225 21.303085 -93.742683 1.052149 11.696396 14.809107 16.894878 4.318290 -23.301348 -0.252516 -0.116598 -7.202594 78.953880 -53.929901 114.954407 -5.019531 78.771507 -48.212101 -17.467848 18.249067 -56.980362 4.814481 -11.674028 63.907314 0.780743 -4.136662 -7.555166 20.195086 -8.812160 -63.112431 -22.303837 -3.059665 87.096512 -2.568315 3.232857 43.025066 -6.910954 18.268938 
16.232346 35.219997 62.303993 24.605598 -0.413369 -32.159172 43.836998 -6.540475 -10.007303 -15.516975 13.862632 -5.118025 -27.418318 18.548697 -9.695725 31.995180 10.040264 -2.388959 12.644089 -1.121542 -0.123850 -57.376930 -54.944717 21.508228 -93.746155 1.153620 11.866142 14.808362 16.885435 4.315897 -23.213152 -0.170436 -0.080775 -7.256333 79.272575 -54.008511 114.934776 -5.028936 78.742973 -47.979378 -16.993074 17.599440 -56.307201 4.902327 -11.235699 63.803524 0.833891 -4.255188 -8.015685 20.303074 -8.592710 -65.455849 -21.766420 -4.070792 88.589897 -2.665944 3.183809 42.629211 -7.462904 18.583426 
